<svg width="100" height="88" viewBox="0 0 100 88" fill="none" xmlns="http://www.w3.org/2000/svg">
<path d="M62.1659 71.6899C57.6812 75.2946 51.3211 76.744 43.0857 76.0382L8.32477 73.0589L19.8678 63.7809L29.6353 64.618L23.2905 69.7178L49.1458 71.9339L55.4906 66.834L39.8073 58.4863C38.2287 57.6257 36.8324 56.9167 35.6183 56.3594C34.4043 55.802 33.4775 55.2693 32.838 54.7612C31.7505 53.7613 32.0731 52.5651 33.8059 51.1724L38.1632 47.6701C40.3036 45.9496 42.4518 44.8192 44.6079 44.2787C48.7732 43.2304 53.3936 42.9238 58.4689 43.3588L91.9371 46.2273L80.4705 55.4439L70.7029 54.6067L76.9713 49.5683L51.1161 47.3523L44.6948 52.5136L61.0106 61.1195C62.359 61.8244 63.5445 62.4473 64.5671 62.9883C65.7363 63.4965 66.5928 64.0005 67.1366 64.5004C68.4604 65.5658 68.3833 66.6925 66.9054 67.8804L62.1659 71.6899Z" fill="url(#paint0_linear_10_30)"/>
<path fill-rule="evenodd" clip-rule="evenodd" d="M42.2666 33.2555C42.2666 32.3921 42.6446 31.564 43.3173 30.9535C43.9901 30.343 44.9026 30 45.854 30H57.8122C58.0342 30 58.2519 30.0561 58.4408 30.1621C58.6298 30.268 58.7824 30.4196 58.8817 30.5999C58.9811 30.7801 59.0231 30.9819 59.0032 31.1826C58.9832 31.3833 58.9021 31.575 58.7688 31.7362L55.7195 35.4258L58.7688 39.1153C58.9021 39.2765 58.9832 39.4682 59.0032 39.6689C59.0231 39.8697 58.9811 40.0714 58.8817 40.2517C58.7824 40.4319 58.6298 40.5835 58.4408 40.6895C58.2519 40.7954 58.0342 40.8516 57.8122 40.8516H45.854C45.5369 40.8516 45.2327 40.9659 45.0085 41.1694C44.7842 41.3729 44.6582 41.6489 44.6582 41.9367V45.1922C44.6582 45.48 44.5322 45.756 44.308 45.9595C44.0837 46.163 43.7796 46.2773 43.4624 46.2773C43.1453 46.2773 42.8411 46.163 42.6168 45.9595C42.3926 45.756 42.2666 45.48 42.2666 45.1922V33.2555Z" fill="url(#paint1_linear_10_30)"/>
<path d="M62.1659 71.6535C57.6812 75.2582 51.3211 76.7076 43.0857 76.0018L8.32477 73.0225L19.8678 63.7445L29.6353 64.5816L23.2905 69.6815L49.1458 71.8975L55.4906 66.7977L39.8073 58.4499C38.2287 57.5893 36.8324 56.8804 35.6183 56.323C34.4043 55.7656 33.4775 55.2329 32.838 54.7248C31.7505 53.725 32.0731 52.5287 33.8059 51.136L38.1632 47.6337C40.3036 45.9133 42.4518 44.7828 44.6079 44.2423C48.7732 43.1941 53.3936 42.8874 58.4689 43.3224L91.9371 46.191L80.4705 55.4075L70.7029 54.5704L76.9713 49.532L51.1161 47.3159L44.6948 52.4772L61.0106 61.0832C62.359 61.788 63.5445 62.4109 64.5671 62.9519C65.7363 63.4601 66.5928 63.9641 67.1366 64.464C68.4604 65.5294 68.3833 66.6561 66.9054 67.844L62.1659 71.6535Z" fill="url(#paint2_linear_10_30)"/>
<path d="M62.1656 71.6534C57.6818 75.2586 51.3198 76.7069 43.0796 75.9982L8.29826 73.0071L19.839 63.7278L29.6122 64.5683L23.2687 69.6688L49.1391 71.8936L55.4827 66.7931L39.784 58.4364C38.2038 57.5749 36.8061 56.8652 35.591 56.3072C34.3758 55.7492 33.4481 55.2159 32.8078 54.7073C31.7189 53.7067 32.0406 52.5099 33.773 51.117L38.1294 47.6142C40.2694 45.8935 42.4178 44.7631 44.5744 44.223C48.741 43.1754 53.3634 42.87 58.4417 43.3067L91.9295 46.1866L80.4652 55.4045L70.692 54.564L76.9591 49.5249L51.0887 47.3001L44.6687 52.4621L61.0004 61.0773C62.3502 61.7829 63.5368 62.4065 64.5604 62.948C65.7307 63.4568 66.5881 63.9613 67.1325 64.4617C68.4579 65.528 68.3818 66.6552 66.9042 67.8433L62.1656 71.6534Z" fill="url(#paint3_linear_10_30)"/>
<defs>
<linearGradient id="paint0_linear_10_30" x1="105.73" y1="16.0678" x2="99.6495" y2="87.0101" gradientUnits="userSpaceOnUse">
<stop stop-color="#8C61E8"/>
<stop offset="1" stop-color="#8C61E8" stop-opacity="0"/>
</linearGradient>
<linearGradient id="paint1_linear_10_30" x1="50.6373" y1="30" x2="50.6373" y2="46.2773" gradientUnits="userSpaceOnUse">
<stop stop-color="#847AF2"/>
<stop offset="0.104167" stop-color="#F5F5F5"/>
<stop offset="0.515625" stop-color="#F5F5F5"/>
<stop offset="1" stop-color="#E0CBF1" stop-opacity="0"/>
</linearGradient>
<linearGradient id="paint2_linear_10_30" x1="105.73" y1="16.0314" x2="99.6495" y2="86.9737" gradientUnits="userSpaceOnUse">
<stop stop-color="#DCBBF5" stop-opacity="0.38"/>
<stop offset="1" stop-color="#8C61E8" stop-opacity="0"/>
</linearGradient>
<linearGradient id="paint3_linear_10_30" x1="105.703" y1="16.0157" x2="99.5995" y2="86.9854" gradientUnits="userSpaceOnUse">
<stop stop-color="#8C61E8" stop-opacity="0"/>
<stop offset="1" stop-color="#F5F5F5"/>
</linearGradient>
</defs>
</svg>
